<svg width="1200" height="800" viewBox="0 0 1200 800" xmlns="http://www.w3.org/2000/svg" role="img" aria-labelledby="title">
  <title id="title">LoadHitch hero illustration</title>
  <defs>
    <linearGradient id="g1" x1="0" x2="1">
      <stop offset="0%" stop-color="#0ea5a4"/>
      <stop offset="100%" stop-color="#6366f1"/>
    </linearGradient>
  </defs>
  <rect width="100%" height="100%" fill="#0f172a" rx="24"/>
  <g transform="translate(80,80)">
    <rect x="0" y="0" width="640" height="520" rx="20" fill="url(#g1)" opacity="0.12"/>
    <circle cx="560" cy="120" r="90" fill="#f97316" opacity="0.18" />
    <g transform="translate(40,40)">
      <rect x="40" y="30" width="400" height="260" rx="14" fill="#0f172a" opacity="0.8" />
      <rect x="60" y="60" width="360" height="28" rx="8" fill="#e6eefc" opacity="0.9"/>
      <rect x="60" y="100" width="260" height="18" rx="6" fill="#e6eefc" opacity="0.6"/>
      <rect x="60" y="130" width="320" height="18" rx="6" fill="#e6eefc" opacity="0.6"/>
      <rect x="60" y="160" width="180" height="18" rx="6" fill="#e6eefc" opacity="0.6"/>
    </g>
  </g>
  <g transform="translate(760,220)">
    <rect x="0" y="0" width="320" height="200" rx="12" fill="#111827" opacity="0.9"/>
    <rect x="16" y="18" width="288" height="18" rx="8" fill="#f8fafc"/>
    <rect x="16" y="50" width="220" height="14" rx="6" fill="#f8fafc" opacity="0.8"/>
    <rect x="16" y="74" width="260" height="14" rx="6" fill="#f8fafc" opacity="0.6"/>
  </g>
</svg>
